<svg xmlns="http://www.w3.org/2000/svg" version="1.1" viewBox="0 0 72 72">
  <style>path { fill: none; stroke: #a0ebf9; stroke-width: 2px; }</style>
  <circle cx="36" cy="36" r="36" fill="#272a37"/>
  <circle cx="36" cy="36" r="3" fill="#a0ebf9"/>
  <path d="M41,27.34C54.861,35.343 63.874,45.72 61.115,50.5C58.355,55.28 44.861,52.663 31,44.66C17.139,36.657 8.126,26.28 10.885,21.5C13.645,16.72 27.139,19.337 41,27.34Z" />
  <path d="M31,27.34C44.861,19.337 58.355,16.72 61.115,21.5C63.874,26.28 54.861,36.657 41,44.66C27.139,52.663 13.645,55.28 10.885,50.5C8.126,45.72 17.139,35.343 31,27.34Z" />
  <path d="M46,36C46,52.006 41.519,65 36,65C30.481,65 26,52.006 26,36C26,19.994 30.481,7 36,7C41.519,7 46,19.994 46,36Z" />
</svg>
