<svg xmlns="http://www.w3.org/2000/svg" viewBox="0 0 1200 1200" version="1.1">
  <style>polygon { fill-opacity: 0.5 }</style>
  <circle cx="600" cy="600" r="600" fill="#272a37" />
  <polygon fill="#b5ffff" points="556.9 389.5 389 485.1 487.5 461.1"/>
  <polygon fill="#b9ffff" points="744.7 359.2 554.5 399.4 690.5 330.3"/>
  <polygon fill="#d3ffff" points="731 926.7 881.7 908.7 587.4 862.5"/>
  <polygon fill="#baffff" points="751.2 923.1 633.3 1063.2 716.2 1014.5"/>
  <polygon fill="#b9ffff" points="294.5 680 312.6 646 402.4 761.1"/>
  <polygon fill="#beffff" points="471.5 996.1 651 1066.2 547.6 1060.8"/>
  <polygon fill="#bdffff" points="811.5 577.8 830.1 705.2 783 820.8"/>
  <polygon fill="#b5ffff" points="982.4 549.1 910.4 671.9 881.5 647.4"/>
  <polygon fill="#b5ffff" points="244.2 364.7 209.5 547.1 194.6 445.1"/>
  <polygon fill="#d3ffff" points="763.3 851.3 790.3 880.5 813.2 764.1"/>
  <polygon fill="#b3ffff" points="367.4 706.9 294 672 304.3 651.1"/>
  <polygon fill="#c5ffff" points="214.5 713.3 270.7 597.8 365.3 539.7"/>
  <polygon fill="#b4ffff" points="604.2 683.6 543.6 597.3 647.1 593"/>
  <polygon fill="#c6ffff" points="351.4 516.1 286.2 599 448.7 479"/>
  <polygon fill="#b8ffff" points="200 445.2 234.3 372.7 319.2 332.1"/>
  <polygon fill="#acffff" points="381.2 532.1 439.1 456.6 364.9 512.2"/>
  <polygon fill="#d7ffff" points="395.5 734.1 536.9 827 418.7 788.1"/>
  <polygon fill="#beffff" points="292.6 861 270.8 795.4 242.1 910.9"/>
  <polygon fill="#b4ffff" points="726.1 246.5 767.5 354.5 639.6 185.9"/>
  <polygon fill="#bcffff" points="772.8 332.6 985 396.6 901.3 335"/>
  <polygon fill="#b5ffff" points="575.7 874.3 483.1 804.5 688.1 884.7"/>
  <polygon fill="#abffff" points="681.4 373.6 573.2 383.3 676.3 345.5"/>
  <polygon fill="#aaffff" points="383.8 759.9 475.8 783.6 544.4 853.8"/>
  <polygon fill="#c1ffff" points="415.2 907.3 488.5 1000.4 422.4 842.5"/>
  <polygon fill="#cdffff" points="209.3 904.5 181.2 794.2 162.6 858.7"/>
  <polygon fill="#ccffff" points="546.3 230.4 537.8 169.1 605.6 260.8"/>
  <polygon fill="#c1ffff" points="633.2 247.3 562.3 249.5 670.1 196.1"/>
  <polygon fill="#bfffff" points="988.3 909.8 1032.9 845 934.3 895.5"/>
  <polygon fill="#c2ffff" points="212.4 700.4 268.4 643.3 196.9 801.5"/>
  <polygon fill="#a7ffff" points="562.2 657.9 569.8 584.4 643.5 640.7"/>
  <polygon fill="#c1ffff" points="338.4 322.9 450.7 366.8 498.5 337.7"/>
  <polygon fill="#c4ffff" points="971.9 565.1 972.9 384.2 1002.3 485"/>
  <polygon fill="#b1ffff" points="458.1 441.9 546.7 425.2 603.3 371.8"/>
  <polygon fill="#abffff" points="769.9 830.2 816.2 757.6 793.5 855.7"/>
  <polygon fill="#c7ffff" points="210 783.9 290.3 855 259 791.1"/>
  <polygon fill="#b5ffff" points="227.3 588.1 270.5 598.4 202 472.5"/>
  <polygon fill="#a4ffff" points="592 578.5 550.8 628 644.1 618.5"/>
  <polygon fill="#b6ffff" points="793.5 570 822.4 532.2 825.3 680.1"/>
  <polygon fill="#bcffff" points="864 887.8 826.8 925.6 964.8 889.1"/>
  <polygon fill="#c6ffff" points="1029.5 827.2 1011.4 881.7 987.9 789.9"/>
  <polygon fill="#adffff" points="906.9 344.6 982.7 396.4 997.9 465.8"/>
  <polygon fill="#c2ffff" points="242.5 906.4 273.4 865.1 186.8 893.4"/>
  <polygon fill="#b7ffff" points="663.9 237.7 598.8 126.1 651.6 162.6"/>
  <polygon fill="#baffff" points="232.9 805.8 219.9 764.8 163.8 832.8"/>
  <polygon fill="#baffff" points="456 348.7 351.2 326.1 253.4 359"/>
  <polygon fill="#b8ffff" points="734.4 918.3 667.6 880.1 821.2 902.2"/>
  <polygon fill="#beffff" points="933.1 793.2 990.8 784 1017.7 829.5"/>
  <polygon fill="#bbffff" points="552.4 144.1 538.4 200.8 613.6 142.4"/>
  <polygon fill="#c5ffff" points="907.3 820.4 922.7 906.2 948.7 784.1"/>
  <polygon fill="#adffff" points="385 347.8 471.2 334.2 488 363"/>
  <polygon fill="#a4ffff" points="732.2 915.8 655.2 868.9 602.1 879.9"/>
  <polygon fill="#acffff" points="547.2 394 474.6 453 624.7 387.2"/>
  <polygon fill="#beffff" points="787.5 368.5 793.6 473 732.5 298.3"/>
  <polygon fill="#aeffff" points="929.9 609.1 982 547.2 982.7 479"/>
  <polygon fill="#aaffff" points="374.9 335.3 231.1 393.2 279 345.8"/>
  <polygon fill="#a8ffff" points="791.1 845.1 783 791.2 771 871.5"/>
  <polygon fill="#b9ffff" points="924.2 855.1 987.7 901.6 903.3 887.6"/>
  <polygon fill="#a7ffff" points="682.8 1003.3 729.9 989 755.3 936.5"/>
  <polygon fill="#b0ffff" points="450.2 965.9 517.4 1004.3 521.4 1043.6"/>
  <polygon fill="#a7ffff" points="633.8 875.5 542.5 854.7 474.9 788.5"/>
  <polygon fill="#aeffff" points="329.9 708.1 430.3 787.3 378.2 714"/>
  <polygon fill="#acffff" points="740.6 914.3 834.1 921.3 853.4 892.2"/>
  <polygon fill="#b3ffff" points="675.7 1041.2 608.3 1068.6 545.6 1044.4"/>
  <polygon fill="#a5ffff" points="640.1 644 609.4 672.4 567.8 656.3"/>
  <polygon fill="#a4ffff" points="295.5 671.6 315.8 656.1 366.8 722"/>
  <polygon fill="#b6ffff" points="872.9 334.1 794.8 329.9 820.2 359.1"/>
  <polygon fill="#b4ffff" points="647.7 173.6 563.1 146.9 602 134.5"/>
  <polygon fill="#a7ffff" points="390.6 521.6 438.9 455.8 529.4 421.5"/>
  <polygon fill="#a6ffff" points="576.1 1061.6 654 1055.2 725 996.1"/>
  <polygon fill="#abffff" points="788.1 768.4 808.6 800.5 823.3 701"/>
  <polygon fill="#a8ffff" points="255 626.8 213.9 698.5 312 600.9"/>
  <polygon fill="#a8ffff" points="405.6 865.6 435.8 870.5 450.1 963.8"/>
  <polygon fill="#a2ffff" points="760.5 305.4 782.2 390.3 685.2 236.4"/>
  <polygon fill="#a3ffff" points="708.2 910.9 639.6 869.6 787.9 904"/>
  <polygon fill="#a4ffff" points="533.6 1040.4 419.2 875 454.3 973.5"/>
  <polygon fill="#c6ffff" points="790.5 509.1 790.8 404.3 821.6 520.1"/>
  <polygon fill="#9ffcff" points="980.3 398.8 972.2 494.9 1000.7 454.1"/>
  <polygon fill="#b3ffff" points="787.5 431.6 803.2 615.5 820.9 522.7"/>
  <polygon fill="#a5ffff" points="641.8 639.6 590.4 579.2 630.5 591.3"/>
  <polygon fill="#aaffff" points="254.6 569.5 255.8 596.2 206.3 534.1"/>
  <polygon fill="#abffff" points="1013.6 804.5 971.8 781.3 911.8 820"/>
  <polygon fill="#a7fdff" points="274.7 355.2 329.3 357.2 268.6 373.6"/>
  <polygon fill="#abffff" points="553.3 220.5 541.1 177.3 581 137.2"/>
  <polygon fill="#a8ffff" points="251.3 790.1 287.4 831.5 205.9 798.3"/>
  <polygon fill="#a8ffff" points="952 785 914.9 846.7 976.4 789.2"/>
  <polygon fill="#a0fcff" points="474.7 360.2 328.5 337.9 417.4 327"/>
  <polygon fill="#a5ffff" points="827.1 616.2 801.2 559.8 802.9 697.6"/>
  <polygon fill="#a7ffff" points="889 647.5 909.9 663.2 962.3 583.8"/>
  <polygon fill="#a9ffff" points="214.1 402.2 197 487.1 227.2 519.3"/>
  <polygon fill="#a5ffff" points="683.9 210.7 626.8 198.5 741.4 294.7"/>
  <polygon fill="#a9ffff" points="656.1 226 565.5 232.3 603.9 254.3"/>
  <polygon fill="#a3ffff" points="981.8 526.8 957 598.9 902.3 632.9"/>
  <polygon fill="#a5ffff" points="890.5 881 975.5 879.3 855.1 919"/>
  <polygon fill="#a5ffff" points="761.4 364.7 808 551.9 812.6 457.1"/>
  <polygon fill="#a2faff" points="738 324.6 798.3 409 770 333"/>
  <polygon fill="#a3ffff" points="540.9 180.1 543.5 222.3 601.8 255.3"/>
  <polygon fill="#aaffff" points="799.1 334.6 867.5 353.8 807.4 354.3"/>
  <polygon fill="#a3ffff" points="274.1 642.4 308.2 559.6 385.7 505.8"/>
  <polygon fill="#a1f6ff" points="635.9 865 544 830.4 601 877.4"/>
  <polygon fill="#a8ffff" points="864.4 332 803.1 342 817 327"/>
  <polygon fill="#b3ffff" points="904.7 658.6 893.8 645.2 891 660"/>
  <polygon fill="#a9ffff" points="980 897.7 1024.9 870.6 1020.9 821.2"/>
  <polygon fill="#b1ffff" points="623.9 386.2 725 358 698.3 341"/>
  <polygon fill="#a7ffff" points="188.7 894.5 167.3 844.9 193.3 794.5"/>
  <polygon fill="#b7ffff" points="740.1 973.9 717.1 957.1 736.7 940.7"/>
  <polygon fill="#a4fbff" points="293.7 617.8 254.6 628.8 319.3 551.5"/>
  <polygon fill="#aaffff" points="270.7 884.6 168.1 871.1 225 906.8"/>
  <polygon fill="#a3feff" points="821.8 342.3 960.3 387.7 890.1 337.7"/>
  <polygon fill="#a5ffff" points="604.6 1043 511.9 1035 562.9 1063.1"/>
  <polygon fill="#a5fdff" points="644.2 178.1 608.7 254.6 654.7 223.1"/>
  <polygon fill="#a5ffff" points="968.7 906.5 915.4 828.1 910.2 864"/>
  <polygon fill="#a5feff" points="809.6 794.5 822 658.5 793.7 732.5"/>
  <polygon fill="#a5f9ff" points="377.2 327.6 441.4 331.7 361 353.8"/>
  <polygon fill="#a9ffff" points="286.1 865 236.8 891.8 275.8 836.8"/>
  <polygon fill="#9df5ff" points="972.3 570.5 999.4 493.7 974 402.5"/>
  <polygon fill="#a6ffff" points="198.5 497.3 237.5 595.3 228.7 510"/>
  <polygon fill="#a3fdff" points="213.1 453.9 231.5 378.2 243.4 404.7"/>
  <polygon fill="#a0f9ff" points="286.8 836.7 259.4 897.5 265.8 802.2"/>
  <polygon fill="#acffff" points="412.1 868.2 454 918.6 435 877"/>
  <polygon fill="#a5feff" points="168.6 824 192.5 795 231.1 807.5"/>
  <polygon fill="#a1f4ff" points="1012.5 888.6 919.1 870.1 964.4 905.9"/>
  <polygon fill="#a2f6ff" points="714.8 244.8 755.2 301.3 721.2 294.1"/>
  <polygon fill="#a2fdff" points="998.1 879.1 1009.8 803.9 1026.2 833.9"/>
  <polygon fill="#a3fcff" points="421.6 754 568.4 843.9 482 821.4"/>
  <polygon fill="#a0f4ff" points="759.9 362.1 787 464.4 796.7 404"/>
  <polygon fill="#afffff" points="424.8 866.1 433.4 876.3 408 862"/>
  <polygon fill="#a1efff" points="870.7 333.5 907.1 366.7 838.1 352.1"/>
  <polygon fill="#9ff5ff" points="204.3 785.7 247.4 787 277.1 836.2"/>
  <polygon fill="#9ff3ff" points="561.1 1035.8 568.7 1063.8 616.1 1066.4"/>
  <polygon fill="#a3f9ff" points="513.4 1002.8 465.1 986.6 496.5 1021.1"/>
  <polygon fill="#a3faff" points="178.5 883.4 223.3 901.7 189.8 850.8"/>
  <polygon fill="#b4ffff" points="731.1 943.2 747.6 948.7 710.7 972.2"/>
  <polygon fill="#9ff5ff" points="723.8 996.8 665.2 1032.8 731.8 946.2"/>
  <polygon fill="#a1f8ff" points="361.5 353.2 296.4 339.4 361.7 327.4"/>
  <polygon fill="#a1eeff" points="879.5 335.3 930.5 352.2 832.8 350.6"/>
  <polygon fill="#a0f4ff" points="974.4 790.4 1028.3 836.8 1023.6 866.1"/>
  <polygon fill="#a1ffff" points="384.4 755.1 465.6 787.1 354.7 699.1"/>
  <polygon fill="#a2f5ff" points="641 615 628.6 655 555.9 633.6"/>
  <polygon fill="#a4f6ff" points="788.8 777.4 807.7 632.5 823.7 693.6"/>
  <polygon fill="#a6f8ff" points="954.5 368.2 903.1 363.4 989.5 427.7"/>
  <polygon fill="#a3f6ff" points="819.5 512.6 825.2 596.7 791.6 506.2"/>
  <polygon fill="#a3feff" points="538.7 422 654.3 377.3 576.3 380"/>
  <polygon fill="#a5f7ff" points="822.3 552.3 796.7 544.1 826 618.4"/>
  <polygon fill="#a2f3ff" points="815.9 494.6 790.7 491.9 797.6 408.2"/>
  <polygon fill="#a3faff" points="352.1 556.6 428.4 465.6 374.2 502.3"/>
  <polygon fill="#a4ffff" points="216.4 797.1 198.4 749.1 245.2 656.7"/>
  <polygon fill="#a3f9ff" points="615 132.2 648.9 165 641.8 214.4"/>
  <polygon fill="#a2f7ff" points="722.2 362.8 704 339 614.4 373.5"/>
  <polygon fill="#a3ffff" points="770.8 897.2 886.5 896.1 801.3 922.2"/>
  <polygon fill="#a4faff" points="270.6 371.6 249.2 365.1 225 425.4"/>
  <polygon fill="#a5f3ff" points="305 683.8 311.1 653.9 328.4 672.4"/>
  <polygon fill="#c3ffff" points="542 178 552 164 544 169"/>
  <polygon fill="#a1f6ff" points="381.5 751 360.6 700.1 308.5 685.2"/>
  <polygon fill="#a0f0ff" points="547.3 227.7 542.8 171.9 571.4 219"/>
  <polygon fill="#a0efff" points="300.9 361.2 254.7 358.3 252 391"/>
  <polygon fill="#9eeeff" points="218.7 470.7 204.1 421.3 240.4 377.5"/>
  <polygon fill="#a3f9ff" points="906.4 839.7 967 804 933.5 794.7"/>
  <polygon fill="#a1f0ff" points="630.1 211.6 718.4 253.5 670.2 203.1"/>
  <polygon fill="#a1f5ff" points="571.6 139.9 616.9 137.6 536.4 195.6"/>
  <polygon fill="#a2f6ff" points="407.7 508.8 343 529.5 333.2 569.8"/>
  <polygon fill="#9ff0ff" points="558.7 240.9 595 255.9 658.7 215.4"/>
  <polygon fill="#a2f1ff" points="270.9 827.9 269.7 888 245.7 900.8"/>
  <polygon fill="#adffff" points="948.7 383.2 972.2 408.3 973.8 448"/>
  <polygon fill="#a0f3ff" points="520.7 436.1 452.7 442.8 410.6 499.7"/>
  <polygon fill="#a2ffff" points="510.8 1005.2 557 1036 525.3 1044.3"/>
  <polygon fill="#a0efff" points="697 908.7 713.8 887.4 629.2 864.4"/>
  <polygon fill="#9febff" points="432 329.7 478.3 360 341.7 346.6"/>
  <polygon fill="#a3f3ff" points="620.4 858.7 529.7 847.7 630.5 888.5"/>
  <polygon fill="#a5f7ff" points="424.8 340 482 339.2 478.8 359.3"/>
  <polygon fill="#b0ffff" points="568.8 591.6 554 618 563.7 655"/>
  <polygon fill="#a3f2ff" points="962.8 879.2 829.9 896.6 885.6 913"/>
  <polygon fill="#a5efff" points="971.3 437.7 989.5 448.7 975.5 493"/>
  <polygon fill="#a2f3ff" points="211.4 424.9 198.1 460.3 228.6 515.2"/>
  <polygon fill="#a8fdff" points="505.3 994.4 481.5 990.1 474 966"/>
  <polygon fill="#9eedff" points="638.9 891.3 582.8 844.2 666.5 877"/>
  <polygon fill="#a1f1ff" points="736.5 320 748.5 291.6 764.9 375.5"/>
  <polygon fill="#a0efff" points="590.5 230.3 547.6 205 565.4 247.3"/>
  <polygon fill="#9febff" points="936.8 358.7 916.8 375 988.5 419.6"/>
  <polygon fill="#a4ffff" points="242.6 692.3 273.2 645.5 241.9 651.3"/>
  <polygon fill="#9eeeff" points="950.4 788.3 1013.1 834.2 1006.6 796.2"/>
  <polygon fill="#a0f5ff" points="816.3 919.4 879.7 888.9 858 919.8"/>
  <polygon fill="#a5fcff" points="738.3 943.2 721.9 998.8 748.9 957.3"/>
  <polygon fill="#afffff" points="708.4 336.4 711.2 362.1 724.9 347.9"/>
  <polygon fill="#9feeff" points="523.9 1020.1 527.8 1049.2 568.8 1039.6"/>
  <polygon fill="#a1f1ff" points="979.9 495 968.7 577.3 912.3 642.5"/>
  <polygon fill="#9ff2ff" points="742.4 916.1 788.3 895.3 687.6 903.7"/>
</svg>
